<?xml version="1.0" standalone="no"?>
<!DOCTYPE svg PUBLIC "-//W3C//DTD SVG 20010904//EN"
 "http://www.w3.org/TR/2001/REC-SVG-20010904/DTD/svg10.dtd">
<svg version="1.0" xmlns="http://www.w3.org/2000/svg"
 width="2000.000000pt" height="2000.000000pt" viewBox="0 0 2000.000000 2000.000000"
 preserveAspectRatio="xMidYMid meet">

<g transform="translate(0.000000,2000.000000) scale(0.100000,-0.100000)"
fill="#000000" stroke="none">
<path d="M10512 15727 c-63 -63 -89 -96 -83 -105 6 -10 20 -7 66 15 58 27 60
30 87 102 16 41 27 75 25 77 -2 2 -44 -38 -95 -89z"/>
<path d="M9374 15759 c-38 -28 -43 -29 -87 -20 -45 11 -47 10 -129 -40 -46
-28 -87 -55 -92 -59 -4 -5 0 -22 10 -40 23 -38 23 -38 167 23 l108 46 -6 -32
-6 -32 43 47 c31 34 61 55 108 74 36 14 66 27 68 29 2 2 -23 8 -55 15 -32 6
-65 13 -73 15 -8 2 -33 -9 -56 -26z"/>
<path d="M9627 15773 c-11 -37 -18 -93 -12 -93 17 0 145 72 141 79 -3 5 -27
12 -52 16 -26 3 -52 9 -59 12 -7 2 -15 -4 -18 -14z"/>
<path d="M10266 15729 c-19 -29 -33 -55 -31 -57 5 -5 112 74 121 89 3 5 -1 9
-10 9 -8 0 -21 3 -29 6 -11 4 -27 -11 -51 -47z"/>
<path d="M9796 15626 c-49 -56 -97 -136 -81 -136 3 0 46 20 95 45 82 41 91 48
109 91 12 26 21 50 21 55 0 5 -20 9 -44 9 -41 0 -47 -4 -100 -64z"/>
<path d="M10160 15673 c-29 -11 -62 -49 -90 -103 -25 -50 -32 -56 -74 -68 -65
-17 -80 -15 -114 13 -34 28 -34 28 -51 -35 -12 -44 -13 -45 -54 -46 -23 0 -70
-4 -105 -9 -57 -7 -65 -6 -87 15 -19 18 -32 21 -75 19 l-52 -4 43 35 c24 19
54 45 68 57 l26 22 -38 1 c-21 0 -74 -12 -119 -27 -72 -24 -83 -25 -91 -11 -9
14 -14 13 -46 -5 -23 -15 -32 -17 -26 -7 5 8 19 32 32 53 23 37 23 37 2 37
-36 0 -78 -33 -99 -75 -11 -23 -20 -46 -20 -52 0 -11 -38 -22 -162 -48 -66
-14 -78 -14 -138 1 l-67 18 -34 -27 c-19 -14 -52 -34 -73 -42 -38 -16 -39 -16
-67 11 -29 28 -30 28 -77 14 -57 -17 -152 -25 -152 -13 0 16 42 34 168 73 74
23 128 35 130 29 3 -6 10 -5 19 3 13 10 20 7 42 -21 l27 -33 19 48 c10 27 19
51 21 52 1 2 23 -10 48 -28 l46 -31 30 23 c25 20 29 30 29 71 1 46 0 48 -21
42 -13 -4 -52 -22 -87 -41 -36 -18 -67 -31 -70 -29 -2 3 6 16 19 30 l23 25
-71 0 c-66 0 -72 -2 -72 -20 0 -15 -13 -26 -46 -40 -55 -24 -65 -25 -38 -5 17
13 12 14 -55 15 -73 0 -75 -1 -107 -35 -26 -29 -39 -35 -73 -35 -22 0 -41 5
-41 10 0 22 -28 5 -168 -103 -216 -167 -235 -179 -267 -167 -22 8 -33 5 -74
-25 -56 -40 -71 -43 -96 -15 -18 20 -18 21 3 49 31 43 31 50 -5 66 l-32 13
-15 -46 c-33 -97 -140 -214 -181 -198 -31 12 -117 -16 -182 -60 -36 -24 -71
-44 -78 -44 -6 0 -19 19 -28 42 l-17 42 32 33 c25 26 28 33 14 33 -27 0 -58
-19 -96 -60 -19 -20 -42 -39 -50 -42 -12 -4 -10 -14 13 -56 l27 -51 -79 -6
c-43 -4 -83 -10 -88 -14 -6 -3 -14 -33 -19 -66 -8 -54 -12 -60 -32 -58 -16 2
-23 -4 -27 -25 -19 -91 -57 -182 -77 -182 -4 0 -19 18 -34 40 l-26 39 -24 -28
c-13 -16 -43 -36 -66 -46 -24 -9 -63 -33 -88 -53 -25 -20 -65 -52 -90 -72
l-44 -35 23 38 c48 79 -16 49 -68 -31 -18 -28 -38 -53 -46 -56 -8 -3 -12 -11
-10 -18 3 -8 -23 -37 -62 -70 -38 -31 -136 -126 -219 -211 -125 -129 -161
-159 -218 -187 -55 -28 -77 -46 -117 -98 -45 -59 -59 -89 -73 -152 -3 -17 -20
-34 -46 -49 -43 -24 -65 -54 -56 -76 3 -8 -58 -76 -153 -172 l-158 -158 -13
-95 -13 -95 -104 -106 -103 -105 1 -80 c1 -93 -1 -101 -91 -258 -83 -146 -126
-253 -143 -352 -12 -70 -16 -79 -80 -153 l-67 -79 11 -54 c11 -52 10 -57 -24
-124 -19 -38 -52 -123 -72 -189 -20 -66 -51 -155 -67 -198 l-29 -77 30 -37
c17 -21 31 -41 31 -45 0 -4 -14 -28 -31 -53 -44 -66 -74 -160 -98 -315 -23
-145 -27 -153 -114 -215 l-27 -20 11 -106 c11 -101 10 -108 -11 -148 -29 -58
-39 -131 -29 -210 6 -54 5 -69 -8 -83 -15 -17 -14 -47 2 -90 6 -14 -5 -24 -56
-48 -35 -16 -67 -38 -71 -47 -3 -10 -7 -77 -7 -149 -1 -112 -5 -141 -26 -204
-31 -93 -31 -96 4 -71 16 12 31 21 34 21 3 0 -6 -34 -20 -77 -23 -69 -24 -77
-10 -88 9 -7 30 -67 50 -146 l33 -134 29 43 28 43 24 -23 c36 -34 97 -163 88
-185 -5 -10 -7 -26 -6 -35 1 -10 -6 -18 -21 -20 -24 -3 -27 -15 -14 -56 6 -18
1 -29 -25 -53 -30 -28 -31 -33 -26 -83 5 -53 5 -55 -24 -67 -41 -16 -35 -45 8
-41 27 3 32 0 38 -26 4 -22 -1 -44 -20 -82 l-26 -51 27 18 27 17 -7 -64 c-4
-36 -10 -76 -13 -90 -5 -24 -5 -24 29 8 l35 33 -14 -83 c-8 -54 -9 -84 -3 -86
21 -8 40 -34 40 -58 0 -13 4 -24 8 -24 4 0 25 -41 47 -92 l39 -92 13 32 c12
30 15 31 29 17 17 -17 44 -20 44 -5 0 5 7 7 15 4 8 -4 15 -10 15 -15 0 -4 -6
-6 -14 -3 -11 4 -9 -14 9 -88 13 -51 32 -109 41 -129 15 -35 15 -39 -4 -83
l-21 -46 25 -29 24 -29 -41 -35 c-41 -33 -47 -64 -10 -52 11 3 22 -5 35 -26
18 -30 18 -57 0 -104 -7 -20 -7 -20 14 -1 21 18 21 18 50 -45 17 -35 42 -77
57 -94 26 -30 26 -30 21 -5 -24 124 -12 191 21 113 24 -57 27 -121 9 -207 -9
-43 -16 -79 -16 -81 0 -2 23 6 51 16 28 11 53 18 55 16 3 -2 15 -35 28 -73 20
-60 27 -70 50 -74 23 -4 33 -18 68 -97 23 -51 47 -93 54 -93 9 0 14 18 16 56
l3 56 100 -126 c55 -70 119 -161 143 -204 24 -42 56 -87 72 -100 17 -13 27
-29 24 -37 -4 -9 3 -16 20 -21 20 -5 28 -16 36 -48 58 -230 117 -317 343 -513
62 -53 133 -125 160 -160 32 -43 63 -71 96 -87 26 -14 62 -36 79 -50 16 -15
33 -26 37 -26 18 0 -10 57 -44 89 -21 20 -30 31 -22 25 38 -26 39 -22 10 25
-35 55 -35 84 -1 89 31 5 43 -7 109 -100 30 -44 74 -93 96 -109 l39 -29 30 21
29 21 56 -46 c30 -25 63 -46 73 -46 18 0 80 -45 80 -59 0 -3 -14 -23 -31 -44
l-31 -37 -41 34 c-23 18 -67 41 -98 50 -45 13 -73 31 -134 86 -124 113 -111
80 20 -49 123 -121 171 -154 240 -166 32 -6 57 -24 120 -85 91 -88 92 -88 200
-125 88 -30 274 -118 401 -189 80 -45 82 -45 99 -26 17 19 18 18 71 -11 41
-24 61 -29 84 -24 26 6 30 4 30 -14 0 -28 14 -34 57 -22 20 6 39 9 41 7 2 -2
-4 -18 -13 -35 l-16 -31 34 0 c18 0 50 -9 70 -19 33 -17 39 -17 44 -5 7 19
-64 94 -88 94 -9 0 -40 27 -69 60 l-52 60 -69 0 -68 0 -31 45 c-31 45 -32 45
-89 45 -60 0 -236 47 -302 80 -23 12 -42 32 -54 60 -22 50 -39 60 -99 60 l-46
0 0 40 c0 49 19 53 74 15 42 -29 56 -31 56 -10 0 8 4 15 9 15 15 0 85 -43 94
-57 4 -7 15 -13 23 -13 8 0 57 -24 107 -54 81 -48 117 -61 290 -108 l197 -53
0 -36 c0 -31 7 -42 44 -73 43 -35 48 -36 122 -36 61 0 75 -3 66 -12 -20 -20
-14 -25 36 -33 l47 -8 -45 -21 c-39 -18 -45 -25 -42 -48 l3 -28 84 0 83 0 7
29 c6 26 15 33 71 51 60 20 67 21 83 6 23 -21 42 -20 96 6 l45 22 35 -41 c47
-56 101 -73 260 -83 72 -4 138 -11 147 -15 11 -5 38 4 73 24 l55 31 49 -19 49
-18 58 49 c98 83 95 71 39 128 -27 27 -55 50 -62 50 -7 0 -33 -19 -58 -43 -31
-30 -45 -52 -45 -70 l0 -27 -34 17 c-32 15 -36 15 -68 -5 l-34 -21 -56 35 -56
34 16 41 c10 23 25 41 37 44 11 2 55 11 98 19 43 8 97 25 120 38 38 21 44 30
61 91 16 55 23 67 40 67 22 0 74 -12 114 -24 18 -6 22 -4 22 14 0 45 154 90
311 90 l77 0 36 40 c20 23 46 61 58 85 20 42 23 44 40 29 16 -16 14 -20 -42
-83 -50 -57 -120 -178 -120 -209 0 -11 128 -35 141 -26 15 9 1 -61 -23 -116
-23 -54 -60 -95 -110 -121 -41 -21 -93 -79 -107 -122 -6 -16 -7 -27 -3 -25 67
34 192 92 246 114 38 15 88 42 110 59 40 30 41 32 51 118 l11 87 -38 -37 c-21
-20 -40 -34 -44 -31 -3 4 -8 25 -11 47 -4 31 2 60 23 116 l29 75 56 0 c75 0
101 26 107 108 3 47 1 62 -14 77 -11 10 -24 34 -29 54 l-11 36 -13 -32 c-13
-31 -34 -43 -81 -43 -14 0 -36 -7 -49 -17 -23 -16 -24 -16 -18 8 11 46 20 129
13 129 -15 0 -52 -24 -89 -56 -20 -19 -48 -34 -61 -34 -13 0 -50 -16 -82 -35
-32 -19 -68 -35 -80 -35 -12 0 -41 -7 -65 -16 -37 -13 -50 -13 -82 -3 -32 11
-45 10 -85 -4 -68 -25 -75 -22 -52 16 13 21 20 50 20 84 l0 51 -30 -15 c-28
-13 -77 -11 -104 5 -5 3 -22 6 -38 7 -16 2 -31 5 -33 7 -9 9 19 78 33 78 7 0
48 14 90 31 60 25 98 33 173 38 80 6 107 12 161 39 84 41 233 176 233 211 0
38 -35 45 -89 16 -29 -15 -60 -23 -85 -22 -33 1 -46 -5 -85 -41 -50 -46 -57
-48 -89 -28 -19 13 -35 13 -122 -1 -58 -9 -120 -26 -147 -40 l-47 -24 -43 19
c-38 18 -46 18 -81 6 -76 -27 -376 -13 -552 26 -27 6 -88 33 -135 60 -79 46
-83 49 -57 55 22 6 34 1 67 -29 52 -47 73 -51 172 -31 60 13 99 15 143 9 101
-13 178 -9 231 11 56 21 232 124 237 140 3 5 0 21 -4 34 -9 22 -13 23 -57 16
-26 -4 -74 -7 -106 -6 -50 1 -66 -3 -108 -30 l-49 -32 -22 21 c-20 19 -36 21
-147 23 -69 1 -143 -1 -165 -5 -34 -6 -43 -4 -59 13 -11 12 -26 21 -34 21 -10
0 -12 7 -8 26 l7 26 -49 -28 -49 -28 -74 17 c-41 9 -100 22 -131 28 -81 17
-87 23 -58 54 l25 27 -33 29 c-35 32 -67 36 -96 14 -34 -26 -59 -17 -111 39
-41 43 -58 55 -95 61 -31 6 -38 10 -22 12 23 5 27 23 12 58 -5 14 1 35 22 73
17 29 29 55 27 56 -2 2 -61 -18 -131 -45 l-127 -48 -81 25 c-60 19 -91 35
-119 62 -21 21 -71 55 -112 77 -84 46 -195 143 -180 158 21 21 66 -5 111 -63
55 -71 81 -88 152 -96 51 -6 60 -4 112 27 31 19 56 39 56 45 0 19 -56 74 -76
74 -10 0 -32 -5 -50 -12 -41 -14 -56 -4 -90 64 -20 39 -34 53 -84 77 -33 17
-75 41 -93 55 -19 15 -38 26 -44 26 -6 0 -32 -23 -58 -51 -27 -29 -50 -46 -54
-40 -4 6 -12 6 -20 1 -25 -15 -41 1 -77 71 l-34 69 -29 -32 c-35 -39 -51 -33
-20 7 23 28 96 85 110 85 5 0 12 -18 15 -41 4 -22 12 -43 18 -45 6 -2 33 4 60
15 l49 18 -91 48 c-51 26 -92 50 -92 54 0 4 -16 26 -36 49 -19 23 -34 42 -31
42 2 0 26 -9 52 -21 25 -11 48 -19 50 -17 2 2 -29 49 -70 103 l-74 100 37 32
37 33 29 -35 c40 -50 109 -95 175 -115 l56 -18 5 -51 5 -51 54 31 54 31 -59
60 c-33 32 -86 74 -119 91 -88 47 -162 122 -290 291 -63 83 -133 174 -156 203
-39 50 -40 53 -29 87 6 20 13 36 14 36 2 0 25 -12 52 -27 l49 -28 -3 -52 -3
-52 43 14 c24 9 49 17 56 20 22 8 -53 114 -136 191 -73 68 -78 75 -104 155
-21 67 -28 80 -33 62 -4 -13 -11 -23 -16 -23 -4 0 -37 56 -72 126 -35 69 -58
123 -51 120 7 -3 18 2 25 10 10 12 8 19 -8 37 -40 43 -153 235 -178 301 -31
83 -70 276 -85 421 -17 171 -24 601 -12 795 11 171 12 178 55 291 57 147 94
317 99 442 1 21 5 40 10 43 4 3 8 29 8 57 0 41 8 68 36 121 28 52 34 70 24 79
-9 9 -16 6 -30 -13 -10 -14 -40 -53 -66 -85 l-46 -60 6 56 c14 130 84 294 210
493 70 110 74 120 61 140 -8 11 -15 39 -15 61 0 34 8 52 45 99 36 46 42 61 34
75 -9 13 -4 38 20 106 48 136 77 180 194 296 65 65 115 125 127 151 26 57 26
112 0 138 -27 27 -26 41 18 128 37 76 139 194 191 221 29 16 26 11 -53 -84
-55 -66 -65 -85 -76 -138 -7 -34 -20 -80 -31 -102 -18 -39 -17 -39 34 19 28
32 94 100 145 150 54 53 97 105 103 124 7 21 32 48 68 76 49 38 59 52 75 102
19 59 47 93 107 129 18 11 61 59 94 106 33 48 75 99 92 113 18 15 35 36 38 47
4 11 30 31 58 45 32 16 78 55 121 101 38 41 87 83 110 94 23 10 77 55 121 100
49 49 98 89 125 101 29 13 40 22 32 27 -8 5 10 17 51 35 73 31 223 125 314
198 53 42 78 54 159 76 l96 25 -38 20 -39 20 -64 -22 c-35 -12 -98 -39 -140
-60 -124 -60 -467 -258 -591 -340 -63 -42 -121 -77 -127 -79 -20 -5 -15 42 7
70 14 18 16 28 8 36 -8 8 -26 2 -65 -20 -54 -30 -56 -31 -84 -14 -16 10 -57
23 -92 30 -58 13 -63 12 -84 -7 -32 -29 -29 -5 4 34 17 19 60 48 108 70 45 20
110 62 146 92 84 71 88 73 201 87 l97 12 35 54 c37 55 44 78 26 89 -6 4 14 22
45 41 31 18 92 65 136 104 88 77 143 110 187 110 16 0 37 9 47 20 20 22 66 38
214 75 104 26 165 51 210 86 13 11 34 19 48 19 24 0 27 4 38 53 6 27 8 28 48
22 23 -4 44 -9 46 -11 1 -1 -9 -28 -23 -60 -14 -31 -26 -60 -26 -65 0 -5 18 2
40 16 45 28 145 69 270 110 47 15 114 42 150 60 53 27 80 34 140 36 53 2 82 8
99 21 34 25 41 23 41 -15 0 -32 -4 -36 -63 -61 -115 -49 -211 -118 -256 -185
-23 -34 -58 -72 -76 -84 -19 -12 -35 -30 -35 -39 0 -24 -39 -48 -76 -48 -17 0
-37 -6 -43 -14 -6 -7 -29 -16 -51 -20 -47 -7 -74 -43 -84 -110 -5 -32 -20 -56
-71 -111 -35 -38 -64 -74 -65 -79 0 -14 73 4 115 29 22 13 60 50 85 83 l45 60
80 7 c137 11 212 37 326 110 34 22 75 39 107 44 50 8 52 7 46 -13 -4 -12 -7
-21 -8 -22 0 0 -36 -29 -80 -62 -74 -58 -77 -62 -50 -64 86 -4 116 8 201 82
43 38 63 50 78 45 11 -4 63 -9 116 -12 107 -6 169 5 259 45 38 17 73 25 115
25 49 0 71 6 123 35 l63 35 27 -26 27 -25 205 75 c185 67 215 75 310 83 109 9
197 21 336 46 45 8 88 12 97 9 8 -4 28 0 45 9 28 14 30 14 57 -14 32 -33 85
-54 114 -45 11 3 31 25 46 48 l26 42 -6 -50 c-9 -76 -13 -83 -59 -110 -37 -22
-49 -24 -97 -17 -29 4 -106 7 -169 6 -111 -2 -115 -3 -138 -29 -19 -23 -51
-35 -185 -71 -118 -31 -165 -40 -174 -32 -10 8 -16 3 -24 -19 -9 -27 -26 -37
-143 -88 -94 -40 -143 -67 -167 -92 -42 -43 -71 -59 -129 -68 -25 -4 -61 -15
-80 -25 -19 -11 -60 -26 -90 -34 -30 -8 -79 -33 -108 -55 -38 -29 -82 -49
-155 -72 -96 -29 -105 -34 -157 -88 -30 -31 -68 -67 -84 -79 -16 -12 -27 -24
-25 -26 2 -2 40 -17 84 -34 91 -35 94 -34 180 37 72 59 144 73 176 34 18 -21
10 -26 -226 -163 -115 -67 -214 -126 -220 -132 -24 -25 83 3 156 41 43 23 91
41 107 41 19 0 41 11 61 29 17 16 62 40 99 52 37 12 79 30 94 41 25 17 30 18
57 3 38 -19 51 -19 51 0 0 22 17 19 69 -13 52 -32 64 -31 165 22 78 41 174 30
165 -18 -3 -14 -61 -39 -247 -104 -158 -55 -239 -88 -230 -93 23 -15 64 -10
149 17 53 17 95 24 116 21 23 -4 44 0 67 13 18 11 69 26 115 34 45 8 88 20 96
26 10 9 20 7 40 -6 23 -15 24 -18 11 -33 -14 -16 -11 -22 39 -71 l55 -54 17
24 c31 46 100 110 119 110 11 0 56 6 102 14 73 12 82 12 80 -2 -2 -10 12 -20
40 -30 24 -8 40 -18 35 -23 -4 -4 -76 -33 -158 -64 -219 -81 -227 -86 -256
-139 -18 -36 -30 -46 -49 -46 -17 0 -61 -32 -140 -100 -63 -55 -118 -100 -121
-100 -3 0 -12 18 -19 40 -7 22 -16 40 -20 40 -4 0 -10 -27 -14 -60 l-7 -60
-57 0 c-55 0 -60 -2 -102 -45 -42 -43 -47 -45 -100 -45 l-55 0 -27 -50 c-16
-28 -24 -50 -19 -50 23 0 173 32 229 49 l62 19 0 -33 c0 -31 -5 -36 -75 -74
-41 -23 -75 -45 -75 -49 0 -4 7 -16 15 -26 15 -19 17 -19 88 13 79 36 210 82
216 75 2 -2 -3 -12 -12 -22 -10 -10 -17 -22 -17 -27 0 -4 68 -5 150 -2 l150 5
-6 -26 c-10 -39 -7 -37 -89 -61 -74 -22 -76 -24 -70 -50 4 -14 8 -28 10 -30 2
-2 56 8 119 23 90 20 142 26 236 26 94 0 171 9 358 40 130 22 252 45 271 51
27 9 36 8 48 -4 12 -11 21 -12 43 -4 21 8 46 8 93 -2 l64 -13 71 36 c39 20 77
36 83 36 6 0 41 -17 77 -37 l67 -38 -140 -17 c-158 -19 -185 -25 -185 -37 0
-12 49 -19 193 -27 103 -5 118 -8 112 -22 -4 -10 2 -22 16 -32 l21 -17 -21
-41 c-12 -23 -21 -45 -21 -50 0 -5 52 -20 115 -32 109 -21 116 -24 121 -49 12
-57 25 -79 43 -74 10 2 37 0 60 -7 l41 -11 0 -49 c0 -27 7 -68 16 -90 13 -31
14 -44 5 -53 -20 -20 -12 -71 18 -115 l29 -44 6 59 c4 32 12 73 17 90 9 30 7
37 -20 70 -21 26 -31 48 -31 72 l0 34 24 -22 c48 -46 105 -197 107 -286 0 -22
6 -74 12 -115 l12 -75 39 48 c21 26 42 47 47 47 5 0 15 -13 24 -30 13 -25 14
-41 4 -102 -6 -40 -9 -96 -6 -125 4 -38 2 -55 -9 -64 -19 -16 -17 -64 5 -119
l19 -45 17 60 c10 33 24 73 32 88 13 26 12 32 -11 70 l-24 43 19 79 c14 56 19
99 15 142 -4 43 0 76 10 105 31 85 33 95 18 124 -14 26 -13 31 13 68 26 37 38
43 129 72 56 17 106 34 111 37 5 4 5 40 -1 94 -11 87 -11 87 -44 97 -32 9 -36
7 -101 -58 l-68 -68 -64 13 c-35 6 -72 16 -82 21 -23 12 -63 93 -72 148 -10
65 -33 142 -65 221 l-29 69 69 37 c47 26 68 43 65 53 -45 163 -43 160 -80 160
-30 0 -40 -7 -71 -50 l-35 -49 -45 47 -44 46 39 40 39 39 54 -23 c47 -20 62
-22 148 -16 54 4 110 2 129 -3 23 -7 47 -7 77 1 37 10 58 9 146 -11 57 -12
118 -21 137 -19 l35 3 -92 82 c-113 101 -141 109 -256 70 l-75 -25 -13 46 -14
47 -123 9 c-119 8 -127 7 -200 -18 -95 -33 -202 -56 -263 -56 -47 0 -47 0 -84
63 -21 34 -44 72 -52 84 -12 20 -12 24 2 29 10 4 23 -2 34 -14 15 -19 33 -22
154 -28 l137 -7 31 27 c35 29 48 31 119 14 40 -9 57 -9 78 1 25 11 29 10 45
-9 17 -21 21 -22 63 -10 42 12 47 11 69 -9 l23 -21 86 40 c80 37 91 39 130 30
23 -5 78 -10 122 -10 140 0 225 -40 225 -104 0 -26 5 -35 23 -40 38 -10 67 -7
73 9 10 25 -43 123 -96 179 -74 78 -130 100 -252 99 -89 -1 -98 1 -119 23 -26
28 -42 30 -59 9 -7 -8 -17 -15 -22 -15 -5 0 -34 55 -66 121 l-56 122 -11 -54
-10 -53 -114 -48 c-101 -43 -116 -47 -124 -32 -8 14 -28 15 -165 10 -119 -4
-149 -3 -122 5 19 6 48 9 65 6 18 -3 44 3 65 14 28 15 58 19 155 20 66 0 129
4 139 8 18 7 16 11 -20 35 -22 16 -30 25 -17 22 17 -6 24 0 40 31 22 46 53 63
114 63 25 0 48 3 52 6 5 6 -126 125 -183 167 l-25 18 52 -5 c72 -7 111 -29
121 -69 7 -27 13 -32 43 -35 82 -6 73 42 -28 146 -47 48 -63 72 -63 93 0 15
-4 39 -9 53 -7 16 -6 26 0 28 5 2 -12 34 -37 71 -25 38 -43 71 -40 74 14 14
86 -19 101 -45 31 -58 28 -57 92 -32 32 13 60 25 62 26 2 2 -22 33 -53 71 -31
37 -56 74 -56 83 0 8 7 53 15 100 8 47 15 86 15 86 0 1 -22 10 -50 20 -76 27
-62 38 39 31 l90 -7 -40 73 c-23 39 -50 80 -60 89 -11 9 -74 44 -140 78 -122
62 -126 63 -191 44 -15 -5 -18 1 -18 38 0 72 -8 87 -49 93 -57 10 -119 35
-125 51 -5 14 -8 13 -28 0 -32 -23 -49 -20 -103 18 -47 34 -48 34 -81 19 -27
-13 -36 -14 -49 -3 -25 20 -18 27 36 33 29 4 54 8 56 11 3 2 -19 34 -48 70
l-53 66 -100 31 c-56 16 -121 36 -144 44 -40 13 -47 13 -83 -6 -22 -11 -44
-17 -48 -15 -5 3 -12 31 -16 61 l-6 55 -67 0 c-47 0 -76 6 -97 18 -28 17 -30
17 -47 0 -23 -23 -50 -23 -98 2 -50 25 -52 25 -88 -5 l-29 -25 -19 21 c-19 21
-18 22 14 81 18 32 27 56 20 52 -7 -5 -52 -37 -100 -72 -48 -35 -91 -61 -96
-58 -4 2 -19 39 -32 80 -13 42 -27 76 -31 76 -5 0 -74 -82 -116 -139 -2 -3
-14 6 -27 18 l-24 22 -150 -75 c-113 -56 -157 -84 -177 -111 -23 -30 -33 -35
-67 -35 -39 0 -88 19 -120 47 -9 8 -25 16 -35 17 -10 2 -19 13 -21 24 -3 18
-10 22 -38 22 -33 0 -34 -1 -34 -39 0 -36 -2 -39 -34 -44 -19 -3 -47 -2 -62 2
l-26 7 41 29 c40 27 68 61 58 71 -2 2 -19 -1 -38 -7 -38 -12 -79 -52 -79 -76
0 -12 -7 -14 -34 -9 -30 6 -35 3 -61 -34 -15 -22 -30 -38 -33 -36 -2 3 -1 27
3 55 5 37 13 54 31 66 14 9 29 13 34 10 5 -3 12 1 17 8 4 8 55 39 113 70 97
52 102 56 76 63 -26 6 -60 5 -238 -12 -38 -4 -68 -3 -68 1 0 4 16 27 35 51 19
23 35 45 35 48 0 7 -39 6 -60 -1z m-1940 -368 c10 -12 8 -16 -15 -25 -53 -20
-82 -3 -43 24 28 20 42 20 58 1z m2950 -196 c5 10 16 10 45 2 21 -6 42 -8 47
-5 4 3 8 3 8 1 0 -14 -131 -86 -167 -92 -46 -7 -96 12 -107 41 -5 13 -14 15
-44 11 l-37 -6 25 19 c25 19 25 19 52 -7 l26 -25 27 51 26 51 45 -26 c34 -20
48 -24 54 -15z m-3880 -235 c0 -4 -17 -27 -37 -52 -27 -32 -57 -54 -110 -78
-41 -19 -83 -34 -93 -34 -12 0 -26 -12 -35 -30 -15 -29 -47 -40 -60 -20 -3 5
6 32 19 59 20 38 38 57 83 84 59 35 133 63 188 70 17 2 33 5 38 6 4 0 7 -2 7
-5z m3146 -159 c-3 -8 -18 -15 -33 -15 -15 0 -73 -16 -128 -34 -55 -19 -102
-32 -103 -31 -7 7 104 58 183 85 78 26 93 25 81 -5z m-356 -160 c-25 -25 -58
-50 -75 -56 -17 -7 -39 -25 -48 -40 -15 -26 -21 -29 -70 -29 -29 0 -58 -5 -64
-11 -6 -6 -17 -9 -24 -7 -8 3 20 24 61 48 81 47 252 139 260 140 2 0 -16 -20
-40 -45z m2501 -269 l74 -34 49 19 c50 18 50 18 72 -2 13 -12 40 -22 70 -25
77 -7 104 -32 143 -131 l20 -51 -32 9 c-51 14 -147 10 -204 -10 l-52 -17 -31
24 -31 24 -28 -26 -27 -26 -77 112 -77 112 0 -56 0 -56 -64 -41 -63 -42 -122
25 c-67 13 -124 26 -127 28 -8 8 160 43 208 43 46 0 48 1 54 33 8 42 51 77
113 92 28 7 51 16 51 21 0 13 -1 13 81 -25z m-600 -186 c-19 -16 -37 -20 -95
-19 -55 1 -63 3 -36 8 19 4 44 12 55 19 11 6 38 11 60 11 l40 0 -24 -19z m609
-415 c0 -2 -9 -9 -19 -14 -14 -8 -20 -7 -25 4 -4 11 2 15 19 15 14 0 25 -2 25
-5z m-502 -47 c-2 -14 -17 -27 -48 -40 l-45 -19 40 40 c44 46 58 51 53 19z
m-246 -57 c-39 -35 -64 -50 -94 -55 -47 -8 -68 5 -48 28 7 9 10 26 6 40 -7 30
2 33 109 34 l80 1 -53 -48z m-230 -61 c-23 -22 -42 -30 -69 -30 -21 0 -33 4
-27 8 40 36 71 52 98 52 l31 -1 -33 -29z m-4238 -189 l27 -28 -90 -77 c-49
-42 -93 -86 -96 -99 -9 -28 -54 -77 -72 -77 -16 0 -17 43 -2 71 15 29 4 56
-16 39 -15 -13 -45 -7 -45 8 0 5 26 19 58 31 71 25 127 65 173 120 19 22 34
41 35 41 0 0 13 -13 28 -29z m3961 -390 c-6 -4 -49 -31 -97 -59 -81 -47 -88
-49 -93 -30 -4 11 -5 21 -3 22 4 3 192 75 198 76 2 0 0 -4 -5 -9z m-245 -105
c0 -21 -17 -29 -48 -21 l-27 8 30 13 c39 17 45 17 45 0z m-190 -60 c0 -2 -7
-6 -15 -10 -8 -3 -15 -1 -15 4 0 6 7 10 15 10 8 0 15 -2 15 -4z m-6275 -5116
c-3 -6 -10 -10 -16 -10 -10 0 -12 33 -2 44 9 9 26 -22 18 -34z m1945 -406 c0
-10 -35 -74 -39 -73 -7 1 -169 180 -189 208 -10 15 -10 24 -1 44 l12 26 108
-101 c60 -56 109 -103 109 -104z m-1940 86 c0 -5 -4 -10 -10 -10 -5 0 -10 5
-10 10 0 6 5 10 10 10 6 0 10 -4 10 -10z m264 -83 c-9 -28 -19 -56 -21 -60 -5
-9 -53 31 -53 43 0 4 19 31 43 61 37 47 42 51 45 31 2 -12 -4 -46 -14 -75z
m348 -52 c1 -30 0 -55 -3 -55 -4 0 -20 3 -37 6 -31 6 -31 7 -16 35 11 22 12
34 4 49 -10 18 -8 20 19 20 28 0 29 -2 33 -55z m414 -68 c29 -56 67 -123 86
-147 28 -37 34 -52 30 -81 -2 -20 1 -52 6 -71 8 -28 6 -47 -9 -89 -25 -72 -24
-74 18 -131 l36 -50 -17 -55 c-14 -44 -20 -52 -31 -43 -8 6 -50 65 -93 129
-54 79 -85 138 -96 177 -29 102 -30 104 -50 66 -10 -19 -19 -32 -21 -30 -1 1
-15 48 -29 103 -37 138 -32 163 40 198 58 29 61 33 40 63 -13 17 -12 22 6 42
12 12 24 22 27 22 4 0 29 -46 57 -103z m-746 13 c6 -11 9 -20 7 -20 -2 0 -12
9 -22 20 -10 11 -13 20 -7 20 6 0 16 -9 22 -20z m1600 -52 c0 -13 -5 -9 -31
19 l-24 26 27 -19 c15 -10 28 -22 28 -26z m-1579 -114 c6 -41 24 -99 44 -143
19 -40 35 -75 35 -77 0 -2 -13 -4 -29 -4 -35 0 -33 -5 -64 151 -17 83 -21 120
-13 132 14 22 16 19 27 -59z m427 -85 c-5 -16 -12 -29 -15 -29 -3 0 -28 17
-57 37 -28 20 -53 38 -55 39 -1 2 0 26 4 54 l7 52 63 -62 c59 -59 62 -64 53
-91z m648 -221 c33 -35 78 -108 71 -115 -6 -6 -98 99 -121 137 -18 31 -18 32
0 22 11 -6 33 -25 50 -44z m164 -346 c61 -90 91 -123 176 -193 45 -37 80 -74
93 -101 18 -38 29 -46 88 -71 38 -15 75 -33 83 -40 36 -28 120 -136 135 -169
20 -50 46 -72 113 -97 32 -11 104 -54 162 -95 144 -103 213 -138 432 -217 108
-38 196 -76 206 -87 12 -14 54 -29 137 -47 137 -32 334 -97 449 -149 58 -27
92 -36 131 -36 29 0 81 -9 115 -20 40 -13 75 -18 96 -14 20 4 45 0 67 -11 27
-13 49 -15 90 -10 47 6 55 5 61 -12 7 -17 8 -17 22 2 14 19 15 19 41 -8 l28
-27 -20 -36 c-27 -50 -84 -98 -141 -119 -27 -10 -60 -28 -74 -40 -16 -15 -44
-25 -78 -28 -29 -4 -68 -15 -86 -27 -42 -25 -60 -25 -94 0 -21 15 -47 21 -116
24 -68 3 -94 9 -115 24 -24 17 -30 18 -52 6 -31 -17 -49 -17 -68 0 -9 7 -83
24 -166 36 -154 23 -191 34 -236 70 -15 13 -50 24 -88 30 -34 5 -74 17 -88 27
-62 44 -78 51 -158 73 -112 29 -112 41 1 55 42 5 52 4 57 -9 11 -28 48 -35
102 -19 36 11 50 12 53 3 2 -6 18 -30 36 -53 37 -50 112 -90 211 -113 39 -9
96 -25 127 -36 55 -19 59 -19 108 -3 51 17 52 17 102 -8 47 -24 54 -24 79 -11
16 8 41 14 56 15 34 1 79 17 51 18 -26 1 -22 18 9 34 24 13 17 15 -89 19 -89
3 -122 8 -143 22 -25 16 -32 17 -67 5 -39 -12 -39 -12 -83 31 -25 24 -45 48
-45 53 0 4 11 23 25 41 30 40 31 46 4 46 -12 0 -59 8 -105 17 -77 16 -87 16
-126 2 -49 -19 -77 -12 -111 25 -16 18 -42 29 -102 40 -62 13 -85 22 -103 42
-22 25 -26 26 -60 16 -33 -10 -39 -9 -52 8 -9 12 -79 44 -170 78 -126 47 -155
61 -155 77 0 12 -10 21 -29 26 -15 4 -36 14 -45 23 -9 8 -40 23 -69 34 -30 12
-75 40 -100 64 -26 24 -95 67 -153 96 -96 48 -115 63 -221 170 -80 80 -122
132 -136 164 l-21 48 45 36 c24 20 44 39 44 43 0 6 -143 81 -154 81 -2 0 5
-29 17 -64 18 -57 19 -69 7 -93 l-13 -28 -43 90 c-45 95 -51 123 -33 158 9 16
9 22 0 25 -24 8 -8 50 40 105 28 31 54 57 57 57 4 0 27 -31 52 -68z m-304
-319 c-2 -2 -20 4 -40 13 -27 14 -36 24 -36 43 0 24 1 24 40 -14 22 -21 38
-40 36 -42z m1504 -40 c0 -5 -5 -15 -10 -23 -8 -12 -10 -11 -10 8 0 12 5 22
10 22 6 0 10 -3 10 -7z m339 -135 c202 -79 204 -80 241 -65 37 14 38 14 49 -9
9 -19 7 -25 -8 -33 -12 -7 -24 -6 -37 3 -10 7 -46 15 -80 18 -39 2 -79 13
-110 29 -27 14 -82 42 -121 63 -52 27 -90 39 -133 43 -56 5 -73 17 -53 36 9
10 19 6 252 -85z m-73 -94 c16 -4 20 -11 16 -30 -5 -29 -15 -36 -36 -28 -10 4
-16 18 -16 35 0 31 2 32 36 23z m-933 -340 c85 -43 96 -51 122 -98 40 -73 91
-133 117 -139 13 -3 50 -11 82 -17 46 -9 56 -14 43 -22 -27 -14 -20 -24 29
-43 51 -19 51 -20 8 -28 -27 -5 -41 1 -90 38 -37 28 -84 53 -126 65 -61 19
-69 25 -96 69 -28 44 -35 49 -78 56 -76 11 -90 20 -110 69 -16 40 -25 48 -59
58 l-40 11 35 13 c53 19 63 17 163 -32z m1810 14 l117 -22 30 22 c16 12 31 22
34 22 2 0 14 -15 25 -32 11 -18 24 -39 29 -46 6 -9 28 -4 90 23 73 32 84 34
102 22 26 -18 16 -27 -32 -27 -21 0 -55 -7 -76 -16 -21 -9 -77 -18 -131 -20
-77 -4 -97 -2 -112 12 -15 13 -30 15 -88 9 -56 -6 -86 -2 -160 16 l-90 24 42
21 c46 24 43 24 220 -8z m467 -138 c12 -23 6 -52 -15 -70 -11 -9 -17 -6 -29
18 -13 26 -13 31 0 51 19 26 30 27 44 1z m-2234 -138 c6 -4 14 -22 17 -39 l7
-33 -55 0 c-37 0 -55 4 -55 13 0 6 -3 22 -6 34 -5 19 -1 22 28 26 18 2 38 4
43 5 6 1 15 -2 21 -6z m2259 -242 c-3 -5 -10 -10 -16 -10 -5 0 -9 5 -9 10 0 6
7 10 16 10 8 0 12 -4 9 -10z"/>
<path d="M7243 5324 c-4 -10 1 -22 12 -30 27 -20 133 -52 195 -60 49 -6 53 -5
40 9 -8 8 -46 33 -84 56 -77 46 -151 57 -163 25z"/>
<path d="M10690 15596 c-66 -53 -108 -101 -98 -112 3 -3 47 7 98 22 85 26 94
31 122 71 16 25 28 46 26 48 -2 2 -22 8 -44 13 -40 9 -43 8 -104 -42z"/>
<path d="M13358 13828 c-21 -5 -38 -13 -38 -17 0 -9 75 -117 103 -148 11 -13
30 -23 41 -23 32 0 83 -35 100 -69 10 -18 29 -34 51 -41 20 -7 38 -10 39 -8 2
1 -23 63 -56 136 -67 146 -90 172 -161 178 -23 2 -59 -2 -79 -8z"/>
<path d="M10850 13474 c0 -3 5 -14 10 -25 10 -17 7 -19 -19 -19 -37 0 -62 -10
-55 -21 6 -11 121 -11 148 0 16 6 11 12 -32 39 -29 18 -52 29 -52 26z"/>
<path d="M14456 13037 c-15 -19 -26 -39 -26 -44 0 -6 40 -47 89 -92 70 -64
109 -112 184 -224 112 -168 117 -177 133 -242 11 -50 12 -50 23 -22 17 43 14
75 -19 182 -40 136 -132 271 -226 336 -24 16 -55 50 -70 75 -38 65 -57 72 -88
31z"/>
<path d="M13673 12892 c19 -20 18 -21 -27 -27 -54 -8 -52 -25 4 -25 28 0 65
-15 144 -61 143 -82 160 -100 181 -196 16 -73 20 -80 75 -130 69 -65 106 -140
119 -244 6 -40 8 -76 5 -80 -2 -4 -29 3 -60 17 -51 22 -54 23 -44 5 16 -31 13
-34 -30 -28 -53 7 -55 -18 -3 -28 52 -9 70 -21 87 -53 31 -62 30 -70 -14 -92
-30 -15 -40 -26 -36 -38 79 -258 148 -499 157 -546 6 -34 28 -125 50 -204 54
-192 81 -391 84 -627 2 -124 8 -207 17 -240 14 -50 14 -51 -21 -120 l-36 -70
3 -175 c2 -145 -1 -188 -16 -249 -19 -73 -19 -76 -1 -115 23 -50 23 -69 4
-106 -8 -16 -18 -58 -21 -92 -3 -35 -12 -81 -20 -103 -7 -22 -21 -94 -30 -160
-19 -149 -30 -196 -61 -263 -21 -45 -23 -57 -14 -84 17 -47 13 -75 -14 -122
-14 -24 -33 -85 -45 -142 -23 -115 -54 -211 -105 -324 -29 -64 -35 -90 -33
-130 l3 -51 82 153 c44 84 89 178 98 208 9 30 67 158 128 283 118 243 133 294
109 378 -8 30 -6 39 13 62 25 28 45 104 45 167 0 63 36 233 90 417 27 95 55
214 61 265 6 51 15 112 20 136 7 32 5 51 -6 79 -8 20 -13 43 -10 52 2 9 16 91
29 183 15 98 36 198 51 240 64 175 63 172 61 348 l-3 165 -45 105 c-43 97 -46
111 -46 185 1 88 -15 137 -71 219 -24 34 -31 56 -31 90 0 25 -6 63 -14 83 -8
21 -17 72 -21 113 -6 72 -9 80 -77 185 -62 97 -71 116 -74 166 -6 103 -29 137
-229 338 -181 183 -184 185 -204 167 -20 -18 -21 -17 -76 43 -56 60 -74 70
-166 87 -34 7 -34 7 -16 -14z"/>
<path d="M14861 12130 c-42 -36 -42 -36 58 -164 66 -84 92 -134 189 -361 14
-33 28 -89 31 -125 l6 -65 18 26 c21 31 23 80 8 201 -8 71 -19 105 -61 193
-32 67 -68 126 -97 156 -25 26 -58 75 -74 109 -15 33 -32 60 -36 60 -4 -1 -23
-14 -42 -30z"/>
<path d="M12806 11606 c-9 -14 -23 -38 -32 -52 -18 -30 -8 -44 34 -44 12 0 41
-9 62 -20 l40 -20 0 29 c0 25 -30 72 -80 125 -4 4 -15 -4 -24 -18z"/>
<path d="M13643 11340 c-25 -145 -25 -147 -4 -195 13 -29 25 -44 32 -39 8 5
10 -4 7 -32 -8 -59 10 -167 42 -257 26 -74 27 -83 14 -109 -13 -24 -13 -40 1
-125 23 -147 35 -201 45 -205 5 -2 4 -33 -2 -74 -9 -59 -8 -91 6 -183 11 -72
14 -117 8 -128 -7 -12 -12 3 -17 55 -4 40 -11 72 -15 72 -5 0 -18 -30 -30 -67
-13 -38 -38 -107 -56 -155 -30 -76 -34 -99 -34 -178 l0 -91 -47 -20 c-27 -12
-58 -25 -71 -30 -24 -9 -24 -15 -7 66 4 18 1 25 -10 25 -12 0 -14 10 -9 53 3
28 11 123 18 209 12 156 10 168 -18 168 -1 0 -13 -34 -26 -76 -21 -66 -29 -78
-57 -92 -33 -16 -33 -17 -33 -84 0 -45 -4 -67 -10 -63 -17 10 -55 95 -75 165
-10 36 -22 69 -26 74 -9 10 -31 -67 -27 -93 2 -10 -8 -27 -21 -38 -34 -28 -52
-136 -34 -218 18 -89 16 -107 -22 -186 -39 -82 -44 -132 -19 -185 16 -33 16
-34 -35 -135 -52 -103 -58 -130 -42 -185 8 -27 4 -37 -35 -88 -56 -75 -69
-113 -55 -163 16 -55 16 -54 -44 -129 -75 -94 -92 -140 -76 -206 11 -48 10
-54 -13 -87 -49 -71 -81 -161 -101 -284 -5 -31 -9 -37 -23 -32 -45 19 -47 17
-71 -52 -15 -45 -22 -81 -19 -103 4 -25 -1 -49 -17 -81 -45 -88 -56 -153 -66
-403 -5 -132 -7 -241 -5 -244 3 -2 22 4 42 14 29 15 50 40 91 108 29 48 77
118 107 155 48 60 55 75 65 137 12 79 38 160 72 224 l23 45 9 -77 c6 -51 14
-78 22 -78 29 0 65 44 90 113 15 39 52 119 83 177 50 95 55 110 53 161 -4 94
14 174 50 225 30 41 32 48 21 76 -13 36 -9 48 19 48 20 0 23 -4 33 -52 4 -16
13 -28 21 -28 12 0 14 13 9 73 l-7 74 75 41 c75 41 88 56 88 108 0 12 27 75
59 140 53 106 61 131 75 226 10 73 24 124 42 160 23 43 28 69 31 143 l4 90
-18 -30 -18 -30 -3 26 c-2 14 13 73 32 132 33 98 36 115 36 229 0 68 5 130 10
138 7 10 10 -17 10 -85 l1 -100 37 75 37 75 -6 230 c-5 168 -11 243 -22 279
-15 46 -15 51 2 75 13 20 15 36 10 71 -4 25 -8 77 -9 115 -1 47 -4 64 -10 50
-11 -29 -15 -13 -40 152 -20 137 -41 217 -73 279 -13 26 -13 33 -1 57 13 25
13 35 -5 95 -11 37 -24 87 -29 112 l-8 45 -11 -65z m-349 -1561 c19 -50 18
-120 -1 -126 -15 -5 -21 20 -26 115 -5 80 1 82 27 11z m301 -586 c-43 -67 -42
-66 -49 -47 -4 11 3 27 21 46 34 36 51 36 28 1z m-67 -132 c7 -19 7 -44 1 -72
-11 -46 -22 -59 -52 -59 -15 0 -16 3 -6 21 25 47 27 74 8 98 -22 27 -17 41 16
41 16 0 26 -8 33 -29z"/>
<path d="M13009 11043 c-66 -74 -65 -70 -22 -83 21 -7 52 -23 70 -36 17 -13
34 -24 37 -24 19 0 2 72 -27 118 l-33 52 -25 -27z"/>
<path d="M13196 10790 c-26 -31 -32 -63 -20 -108 5 -18 9 -20 21 -10 36 29 55
104 34 136 -6 10 -15 6 -35 -18z"/>
<path d="M15561 10608 c-1 -9 6 -52 14 -95 21 -110 20 -118 -15 -133 -35 -15
-34 -10 -14 -54 16 -33 16 -35 -5 -64 -27 -39 -27 -41 10 -114 28 -55 30 -65
20 -98 -6 -21 -11 -54 -11 -74 0 -33 2 -36 30 -36 17 0 30 1 30 3 0 1 6 32 14
68 10 47 11 81 5 116 -5 27 -10 121 -12 209 -2 156 -3 160 -34 224 -17 36 -32
58 -32 48z"/>
<path d="M13197 10513 c-41 -44 -38 -130 8 -259 30 -82 34 -104 29 -150 -4
-30 -4 -54 0 -54 19 0 47 23 61 50 17 33 20 90 5 90 -6 0 -8 10 -5 23 2 12
-12 91 -33 175 l-37 153 -28 -28z"/>
<path d="M13483 10334 c-36 -16 -37 -11 11 -114 l25 -55 0 93 c1 50 0 92 -1
91 -2 0 -18 -7 -35 -15z"/>
<path d="M15001 10091 c-12 -8 -13 -14 -3 -36 7 -16 12 -76 12 -154 0 -102 -4
-142 -20 -192 -16 -50 -19 -78 -14 -125 5 -47 0 -84 -20 -168 -14 -59 -26
-126 -26 -149 -1 -23 -7 -53 -15 -67 -19 -34 -19 -110 1 -138 15 -21 14 -31
-16 -145 -18 -67 -40 -149 -50 -182 -10 -33 -21 -86 -24 -119 -4 -35 -24 -99
-51 -163 -25 -58 -45 -114 -45 -124 0 -11 -11 -41 -25 -67 -21 -41 -25 -60
-23 -123 3 -72 2 -76 -40 -139 -23 -35 -45 -76 -47 -90 -7 -36 -23 -97 -60
-234 l-32 -120 -54 -42 c-54 -41 -54 -42 -98 -174 -41 -125 -47 -137 -102
-196 -33 -35 -59 -68 -59 -74 0 -25 -20 -6 -37 35 -10 25 -21 45 -24 45 -4 0
-16 -21 -27 -47 l-20 -47 21 -28 21 -28 26 25 27 25 -5 -32 -5 -33 39 30 c21
16 52 40 69 53 27 23 29 23 36 6 10 -29 -7 -73 -50 -135 -22 -31 -43 -68 -46
-82 -6 -22 -3 -27 19 -33 15 -3 28 -5 30 -3 1 2 35 63 76 134 40 72 104 175
141 231 81 119 119 196 119 241 0 28 9 40 63 82 59 47 63 52 80 119 17 67 64
172 107 238 18 28 19 37 9 76 -11 40 -10 47 8 74 12 16 24 48 27 72 4 24 15
55 26 70 21 29 50 161 50 227 0 32 7 46 36 76 34 34 37 43 46 125 8 80 30 158
69 251 11 27 10 37 -5 72 -17 37 -18 43 -2 81 9 22 16 58 16 79 0 21 7 56 16
77 13 31 15 60 10 159 -4 66 -8 145 -9 176 -1 31 -8 63 -16 73 -8 9 -15 24
-15 34 -1 9 -10 43 -20 76 -14 44 -16 74 -11 123 5 50 3 69 -9 88 -18 27 -21
61 -6 70 6 4 4 17 -5 35 -8 16 -15 44 -15 63 0 18 -5 38 -12 45 -14 14 -18 15
-37 3z"/>
<path d="M15557 9872 c-27 -29 -28 -30 -25 -153 l3 -124 48 93 c36 72 47 104
47 141 0 74 -28 90 -73 43z"/>
<path d="M15816 9870 c-3 -19 -7 -80 -10 -135 -6 -106 -30 -217 -72 -328 -25
-66 -26 -73 -19 -206 4 -76 11 -144 15 -151 4 -6 0 -26 -8 -44 -11 -21 -19
-75 -23 -171 -11 -209 -61 -377 -160 -539 -28 -45 -33 -65 -46 -181 -7 -71
-12 -138 -11 -150 1 -11 -10 -46 -25 -77 -21 -43 -31 -87 -43 -185 -8 -70 -19
-146 -25 -168 -27 -101 -143 -401 -165 -427 -26 -32 -30 -62 -13 -120 9 -34 7
-43 -17 -84 -23 -39 -25 -48 -13 -59 12 -12 27 3 105 103 237 306 305 456 277
614 l-11 63 70 104 71 104 22 131 c18 107 31 149 68 226 102 217 127 354 88
478 l-23 70 51 109 51 109 3 120 c3 89 0 129 -11 158 -12 32 -13 44 -3 72 7
19 9 39 5 46 -4 6 -13 53 -20 102 -27 194 -35 234 -54 272 -12 23 -20 58 -20
89 0 28 -6 60 -14 70 -13 19 -15 18 -20 -15z"/>
<path d="M15568 9433 l5 -122 -37 -6 c-38 -8 -42 -17 -26 -61 9 -24 7 -31 -19
-58 l-30 -31 23 -75 c24 -74 24 -76 6 -105 -10 -16 -21 -47 -25 -67 -7 -34 -5
-38 20 -44 31 -8 36 -3 66 76 15 39 19 68 16 100 -4 28 4 94 21 178 24 121 25
139 14 202 -7 39 -18 85 -26 102 -12 30 -13 21 -8 -89z"/>
<path d="M15371 8975 c-23 -33 -31 -54 -29 -77 3 -34 26 -55 52 -45 13 5 16
22 16 87 0 44 -1 80 -3 80 -2 0 -18 -20 -36 -45z"/>
<path d="M15448 8804 c-31 -20 -38 -31 -44 -71 -4 -31 -17 -59 -34 -80 -16
-17 -41 -72 -59 -126 -19 -57 -41 -103 -56 -117 -24 -23 -25 -28 -25 -157 0
-94 -4 -144 -14 -168 l-15 -35 29 0 c33 0 32 -3 56 135 14 82 24 111 56 162
l40 63 -22 35 c-19 31 -20 39 -10 71 7 20 15 32 19 25 8 -12 107 108 127 154
24 59 27 99 7 117 -17 15 -21 14 -55 -8z"/>
<path d="M15117 7952 c-29 -29 -37 -46 -37 -74 0 -34 14 -47 51 -48 7 0 32
151 26 156 -2 2 -20 -13 -40 -34z"/>
<path d="M15066 7640 c-18 -17 -52 -66 -75 -109 -23 -44 -55 -91 -72 -105 -28
-24 -32 -35 -49 -147 -11 -66 -28 -138 -39 -159 -21 -41 -19 -50 14 -50 19 0
27 15 60 108 30 86 47 118 87 165 l50 58 -17 39 -18 39 47 65 c41 57 69 126
53 126 -4 0 -22 -14 -41 -30z"/>
<path d="M12289 7487 c-46 -73 -51 -88 -44 -124 l6 -34 64 83 65 83 -23 17
c-32 25 -39 23 -68 -25z"/>
<path d="M12404 7431 c-40 -42 -90 -105 -113 -140 -39 -61 -101 -205 -101
-236 0 -8 -4 -15 -8 -15 -4 0 -18 -21 -30 -46 -22 -45 -23 -46 -47 -30 -78 50
-69 49 -90 10 -10 -19 -51 -64 -90 -99 -39 -35 -82 -84 -96 -109 -14 -28 -31
-46 -41 -46 -22 0 -22 15 -3 69 11 32 11 41 1 41 -23 0 -54 -44 -70 -103 -10
-36 -22 -57 -29 -54 -7 2 -24 25 -39 52 -30 56 -29 57 -59 -43 -13 -45 -20
-50 -39 -27 -18 21 -29 19 -52 -11 -12 -14 -58 -50 -103 -79 -45 -29 -95 -69
-111 -89 -48 -60 -78 -43 -44 25 12 22 19 43 17 45 -2 3 -16 0 -31 -6 -19 -7
-34 -26 -50 -63 -13 -29 -31 -59 -40 -66 -13 -11 -17 -6 -32 48 -10 34 -20 61
-23 61 -3 0 -28 -42 -54 -94 -58 -111 -160 -275 -239 -384 -46 -64 -63 -80
-96 -90 -48 -15 -115 -77 -130 -122 -11 -32 -11 -32 14 -26 59 15 84 18 83 10
0 -5 -37 -63 -82 -129 l-82 -119 -65 -16 -65 -16 -12 -59 c-7 -33 -15 -70 -18
-82 -3 -13 -11 -23 -18 -23 -6 -1 -25 -7 -42 -14 l-29 -12 47 -33 c26 -17 47
-35 47 -39 0 -4 -29 -23 -65 -42 -58 -31 -73 -47 -145 -146 -48 -67 -80 -121
-80 -136 0 -22 6 -26 62 -36 34 -6 65 -8 69 -4 3 4 11 27 18 52 22 79 54 113
149 161 91 46 166 112 299 266 50 56 80 81 145 115 100 53 148 107 300 336 58
86 112 163 121 171 15 12 16 10 10 -19 -5 -26 -3 -32 8 -28 8 4 31 13 52 22
20 9 37 13 37 8 0 -4 -26 -66 -58 -137 l-58 -130 -67 -35 -67 -35 0 -77 0 -78
-41 -26 -41 -26 56 -26 56 -27 -61 -49 c-56 -45 -67 -62 -125 -180 -37 -75
-62 -136 -59 -146 8 -24 -174 -195 -224 -211 -20 -7 -53 -31 -74 -55 -26 -30
-49 -45 -73 -50 -41 -7 -49 -21 -59 -92 -7 -50 -9 -54 -70 -97 -104 -75 -168
-100 -252 -100 -40 1 -73 -1 -73 -2 0 -2 7 -14 15 -27 15 -22 14 -25 -16 -51
-33 -27 -45 -28 -126 -8 -17 4 -25 -2 -39 -29 -9 -18 -18 -34 -19 -36 -1 -1
-34 4 -74 13 -94 20 -91 20 -91 -19 l0 -34 136 -7 c150 -8 213 1 404 56 81 24
91 25 70 9 -29 -22 -30 -22 89 -45 l83 -17 42 41 c23 22 52 42 66 43 21 3 25
-2 30 -32 5 -33 7 -35 40 -32 105 10 240 33 275 47 291 120 430 211 515 335
51 75 151 167 263 241 131 88 147 104 147 153 0 39 2 42 49 64 35 16 64 41 99
85 28 34 77 87 109 117 93 87 220 255 274 362 52 105 101 161 156 179 19 6 58
34 86 63 29 28 80 75 114 104 40 34 77 77 102 121 28 47 78 104 165 189 69 67
126 123 126 126 0 2 -13 9 -30 15 -26 9 -30 15 -30 47 0 22 12 59 32 94 l32
58 -27 39 c-14 21 -39 53 -55 72 l-28 34 -110 -37 -109 -36 -102 -143 c-215
-300 -225 -312 -242 -309 -9 1 -63 -4 -119 -12 l-103 -14 -195 -188 c-108
-104 -240 -236 -294 -294 -54 -58 -125 -124 -158 -147 l-59 -42 -13 24 c-12
23 -13 23 -100 -51 -48 -41 -90 -74 -94 -74 -7 0 45 97 86 157 15 23 55 61 88
84 90 63 143 149 261 418 67 151 97 207 128 235 13 12 21 31 21 52 0 23 16 55
54 111 77 113 269 488 261 512 -4 14 5 26 43 50 46 29 50 35 56 83 6 42 14 58
51 94 23 24 52 63 64 86 19 40 54 158 48 164 -1 1 -34 -32 -73 -75z m-1013
-1229 c-20 -39 -77 -90 -88 -79 -3 3 19 33 48 66 30 33 55 58 57 56 2 -2 -6
-21 -17 -43z m268 -13 c37 -13 37 -17 10 -72 -48 -95 -72 -128 -82 -118 -8 8
-6 21 6 46 10 21 17 60 17 95 0 65 1 66 49 49z m-627 -251 l28 -19 -61 -80
c-33 -44 -64 -77 -70 -74 -14 9 -11 22 15 63 14 20 28 61 32 89 7 55 7 55 56
21z m715 -588 c-30 -27 -78 -84 -107 -127 -89 -130 -161 -214 -192 -228 -19
-8 -40 -30 -57 -61 -19 -36 -37 -54 -68 -69 l-42 -20 -1 -71 0 -71 -78 -75
c-88 -84 -150 -118 -229 -127 l-55 -6 21 -27 21 -26 -26 -31 c-23 -28 -31 -31
-84 -31 l-59 0 -12 -40 -12 -40 -84 0 c-77 0 -83 2 -83 20 0 63 53 123 126
143 36 9 46 18 61 50 34 78 70 115 143 152 39 20 73 43 76 53 17 55 35 82 54
82 32 0 78 27 148 87 35 29 78 60 95 69 79 40 267 213 333 307 53 75 122 137
151 137 8 0 -10 -22 -40 -50z m-702 -209 c-20 -20 -29 -8 -14 18 10 14 15 17
21 8 4 -7 1 -18 -7 -26z"/>
<path d="M7518 6851 c-37 -25 -67 -50 -67 -56 -1 -25 36 -55 75 -61 l41 -6 13
81 c7 45 11 83 9 85 -2 1 -34 -18 -71 -43z"/>
<path d="M5105 6498 c4 -18 23 -58 41 -88 36 -59 40 -79 23 -111 -10 -19 -12
-19 -35 -4 -20 13 -28 14 -40 5 -12 -11 -10 -18 14 -49 16 -20 41 -58 57 -85
29 -51 101 -136 116 -136 4 0 -3 31 -16 69 l-23 69 24 33 c13 18 24 35 24 38
0 4 -20 17 -45 30 -44 23 -45 24 -45 75 0 44 -6 61 -45 119 -25 37 -48 67 -51
67 -3 0 -2 -15 1 -32z"/>
<path d="M8060 6395 l-64 -65 24 -25 c18 -19 33 -25 67 -25 l43 0 0 90 c0 50
-1 90 -3 90 -1 0 -31 -29 -67 -65z"/>
<path d="M13577 6366 c-32 -51 -32 -54 -7 -86 l19 -25 25 25 c24 23 25 28 14
70 -6 25 -14 48 -17 52 -3 4 -19 -12 -34 -36z"/>
<path d="M9325 5801 c-33 -14 -87 -42 -120 -61 -50 -28 -71 -35 -121 -35 -53
-1 -66 -5 -102 -35 -23 -18 -42 -34 -42 -36 0 -1 41 -9 90 -19 l91 -16 50 45
c39 35 59 46 84 46 47 0 155 66 155 95 0 41 -20 44 -85 16z"/>
<path d="M13358 5748 c-20 -29 -40 -66 -45 -83 -6 -19 -17 -31 -30 -33 -12 -2
-68 -51 -125 -109 -56 -58 -173 -168 -260 -244 -86 -77 -168 -156 -183 -175
-15 -20 -46 -49 -68 -65 -23 -16 -58 -57 -79 -90 -32 -51 -47 -64 -94 -85 -31
-14 -58 -23 -60 -22 -5 6 142 156 234 238 45 42 82 82 82 90 0 9 -13 23 -29
33 l-29 17 -41 -42 c-23 -24 -50 -58 -61 -75 -14 -24 -26 -32 -43 -31 -14 1
-46 -15 -83 -44 -76 -58 -260 -178 -389 -253 -55 -32 -125 -78 -155 -103 -30
-24 -74 -53 -96 -62 -23 -10 -57 -37 -75 -60 -41 -50 -68 -66 -134 -75 -69
-10 -119 -38 -273 -149 -131 -95 -133 -96 -172 -87 -34 8 -40 6 -40 -8 0 -9
-3 -26 -6 -38 -6 -21 -3 -23 29 -23 20 0 38 4 41 9 3 4 35 11 70 14 92 9 157
29 356 114 204 87 226 99 359 198 85 63 213 148 271 180 8 4 -19 -27 -60 -69
-67 -68 -78 -76 -113 -76 -42 0 -53 -14 -43 -55 7 -28 36 -33 59 -11 8 8 50
26 93 41 99 33 150 62 343 193 140 95 176 127 386 336 203 203 241 246 309
350 42 65 105 154 139 198 111 143 117 151 117 169 0 13 -43 39 -65 39 -1 0
-18 -24 -37 -52z"/>
<path d="M9988 5703 c-36 -26 -87 -65 -112 -87 -35 -29 -57 -40 -97 -45 -45
-5 -56 -11 -87 -48 l-35 -43 95 0 96 0 37 55 c33 47 43 55 69 55 25 0 44 12
91 60 50 50 58 63 49 78 -19 29 -37 25 -106 -25z"/>
<path d="M10711 5278 c-10 -32 -19 -39 -61 -53 -51 -17 -87 -55 -164 -177 -29
-45 -76 -176 -76 -210 0 -5 32 -8 71 -8 l70 0 50 106 c28 58 48 113 45 121 -4
9 18 42 58 86 l64 72 -23 50 -22 50 -12 -37z"/>
<path d="M9438 4948 c-31 -11 -32 -15 -18 -54 8 -21 6 -38 -10 -81 -27 -73
-25 -82 10 -48 41 39 70 103 70 153 0 45 -5 48 -52 30z"/>
<path d="M10266 4905 c-10 -8 -24 -16 -30 -18 -7 -3 -5 -15 7 -36 21 -37 15
-71 -14 -71 -38 0 -85 -29 -149 -92 -76 -74 -126 -101 -193 -104 -40 -2 -85
-22 -293 -134 -135 -73 -244 -134 -242 -135 6 -6 177 -75 186 -75 5 0 26 14
47 30 21 17 50 30 65 30 23 0 32 8 49 43 25 52 67 78 130 82 37 2 203 55 219
70 2 1 -13 13 -32 25 -20 12 -36 25 -36 30 0 5 39 28 87 52 86 42 97 52 166
148 l17 25 -6 -44 c-8 -57 9 -47 42 23 16 35 24 69 24 109 0 61 -9 69 -44 42z"/>
<path d="M8957 4356 c-26 -13 -50 -26 -53 -29 -3 -2 16 -17 42 -31 l47 -27 34
33 34 33 39 -23 39 -22 7 34 c3 19 3 39 -1 45 -3 6 -36 11 -73 11 -50 -1 -79
-7 -115 -24z"/>
</g>
</svg>
