<svg xmlns="http://www.w3.org/2000/svg" width="64" height="64" viewBox="0 0 64 64" id="japanese-house">
  <rect width="10" height="9" x="48" y="33.499" fill="#e6ecf4"></rect>
  <polygon fill="#a05454" points="58 42.499 58 48.499 48 48.499 48 45.499 48 42.499 58 42.499"></polygon>
  <rect width="3" height="3" x="45" y="42.499" fill="#914747"></rect>
  <polygon fill="#ffcf44" points="48 33.499 48 42.499 45 42.499 45 39.489 45 36.489 45 33.499 48 33.499"></polygon>
  <polygon fill="#e6ecf4" points="45 45.499 45 48.499 39 48.499 39 42.499 42 42.499 45 42.499 45 45.499"></polygon>
  <rect width="3" height="3" x="45" y="45.499" fill="#833d3d"></rect>
  <rect width="3" height="3.01" x="42" y="39.489" fill="#a3cbff"></rect>
  <rect width="3" height="2.99" x="42" y="33.499" fill="#a3cbff"></rect>
  <rect width="3" height="3" x="39" y="36.489" fill="#a3cbff"></rect>
  <polygon fill="#5699f4" points="39 39.489 39 42.499 36.06 42.499 36 42.499 36 39.499 36 39.489 39 39.489"></polygon>
  <polygon fill="#66a9ff" points="39 36.489 39 39.489 36 39.489 36 36.499 36 36.489 39 36.489"></polygon>
  <polygon fill="#d8e0eb" points="36.06 42.499 39 42.499 39 48.499 36 48.499 36 42.499 36.06 42.499"></polygon>
  <polygon fill="#a05454" points="36 42.499 36 48.499 27 48.499 27 45.499 27 42.499 35.99 42.499 36 42.499"></polygon>
  <polygon fill="#5699f4" points="36 39.489 36 39.499 33 39.499 33 36.499 36 36.499 36 39.489"></polygon>
  <polygon fill="#d8e0eb" points="36 36.489 36 36.499 33 36.499 30 36.499 27 36.499 27 33.499 36 33.499 36 36.489"></polygon>
  <rect width="3" height="3" x="27" y="36.499" fill="#5699f4"></rect>
  <polygon fill="#d8e0eb" points="36 39.499 36 42.499 35.99 42.499 27 42.499 27 39.499 30 39.499 33 39.499 36 39.499"></polygon>
  <rect width="3" height="3" x="30" y="36.499" fill="#66a9ff"></rect>
  <rect width="9" height="3" x="18" y="45.499" fill="#4d5662"></rect>
  <polygon fill="#833d3d" points="27 42.499 27 45.499 18 45.499 18 42.499 21 42.499 24 42.499 26.99 42.499 27 42.499"></polygon>
  <rect width="3" height="2.99" x="36" y="33.499" fill="#5699f4"></rect>
  <polygon fill="#636a74" points="18 45.499 18 48.499 8 48.499 9 45.499 18 45.499"></polygon>
  <polygon fill="#914747" points="18 42.499 18 45.499 9 45.499 9 42.499 9.13 42.499 12 42.499 15 42.499 18 42.499"></polygon>
  <rect width="3" height="3" x="24" y="36.499" fill="#3b88eb"></rect>
  <rect width="3" height="3" x="15" y="33.499" fill="#3b88eb"></rect>
  <rect width="3" height="3" x="12" y="36.499" fill="#3b88eb"></rect>
  <rect width="3" height="3" x="21" y="39.499" fill="#3b88eb"></rect>
  <rect width="3" height="3" x="15" y="39.499" fill="#3b88eb"></rect>
  <rect width="3" height="3" x="21" y="33.499" fill="#3b88eb"></rect>
  <polygon fill="#3b88eb" points="9.13 39.499 12 39.499 12 42.499 9.13 42.499 9 42.499 9 39.499 9.13 39.499"></polygon>
  <rect width="3" height="3" x="18" y="36.499" fill="#3b88eb"></rect>
  <polygon fill="#3b88eb" points="9 33.499 12 33.499 12 36.499 9.13 36.499 9 36.499 9 33.499"></polygon>
  <g>
    <rect width="3" height="3" x="24" y="33.499" fill="#5699f4"></rect>
    <rect width="3" height="3" x="12" y="33.499" fill="#5699f4"></rect>
    <polygon fill="#5699f4" points="24 39.499 27 39.499 27 42.499 26.99 42.499 24 42.499 24 39.499"></polygon>
    <rect width="3" height="3" x="15" y="36.499" fill="#5699f4"></rect>
    <rect width="3" height="3" x="12" y="39.499" fill="#5699f4"></rect>
    <rect width="3" height="3" x="21" y="36.499" fill="#5699f4"></rect>
    <rect width="3" height="3" x="18" y="39.499" fill="#5699f4"></rect>
    <rect width="3" height="3" x="18" y="33.499" fill="#5699f4"></rect>
    <polygon fill="#5699f4" points="9.13 36.499 12 36.499 12 39.499 9.13 39.499 9 39.499 9 36.499 9.13 36.499"></polygon>
  </g>
  <g>
    <rect width="3" height="3" x="42" y="36.489" fill="#85baff"></rect>
    <rect width="3" height="3.01" x="39" y="39.489" fill="#85baff"></rect>
    <rect width="3" height="2.99" x="39" y="33.499" fill="#85baff"></rect>
  </g>
  <polygon fill="#66a9ff" points="36 26.499 28 26.499 32 22.499 36 26.499"></polygon>
  <path fill="#a05454" d="M36,26.49935l-4-4-4,4Zm5-9h8l2,5,12,10-5,1H6l-5-1,12-10,2-5H41Z"></path>
  <g>
    <path d="M48.999,18.499h-34a1,1,0,0,1,0-2h34a1,1,0,0,1,0,2Z"></path>
    <path d="M12.999,23.499a.9902.9902,0,0,1-.37109-.07129,1.00029,1.00029,0,0,1-.55762-1.2998l2-5a1.00011,1.00011,0,1,1,1.85742.74219l-2,5A.99959.99959,0,0,1,12.999,23.499Z"></path>
    <path d="M1.001,33.5a1.00006,1.00006,0,0,1-.6416-1.76855l11.999-10.001a1.00054,1.00054,0,1,1,1.28125,1.53711l-11.999,10.001A.9997.9997,0,0,1,1.001,33.5Z"></path>
    <path d="M6.001 34.499a.97907.97907 0 01-.19727-.01953l-5-.999a.99993.99993 0 11.39258-1.96094l5 .999A1 1 0 016.001 34.499zM50.99805 23.499a.99959.99959 0 01-.92871-.6289l-2-5a1.00011 1.00011 0 111.85742-.74219l2 5a1.00029 1.00029 0 01-.55762 1.2998A.9902.9902 0 0150.99805 23.499z"></path>
    <path d="M62.99609,33.5a.9997.9997,0,0,1-.63964-.23145l-11.999-10.001a1.00054,1.00054,0,1,1,1.28125-1.53711l11.999,10.001A1.00007,1.00007,0,0,1,62.99609,33.5Z"></path>
    <path d="M57.99609,34.499a1,1,0,0,1-.19531-1.98047l5-.999a.99993.99993,0,1,1,.39258,1.96094l-5,.999A.97907.97907,0,0,1,57.99609,34.499Z"></path>
    <path d="M57.99707 34.499H6a1 1 0 010-2H57.99707a1 1 0 110 2zM63 49.5H1a1 1 0 010-2H63a1 1 0 010 2z"></path>
    <path d="M58.001 49.5a.99942.99942 0 01-1-1V33.499a1 1 0 012 0V48.5A.99943.99943 0 0158.001 49.5zM48.001 49.5a.99942.99942 0 01-1-1V33.499a1 1 0 012 0V48.5A.99943.99943 0 0148.001 49.5zM35.999 49.5a.99943.99943 0 01-1-1V33.499a1 1 0 012 0V48.5A.99942.99942 0 0135.999 49.5zM27 49.5a.99943.99943 0 01-1-1V33.499a1 1 0 012 0V48.5A.99943.99943 0 0127 49.5zM18.001 49.5a.99942.99942 0 01-1-1V33.499a1 1 0 012 0V48.5A.99943.99943 0 0118.001 49.5zM5.999 49.5a.99943.99943 0 01-1-1V33.499a1 1 0 012 0V48.5A.99942.99942 0 015.999 49.5z"></path>
    <path d="M27.002,46.5H5.99707a1,1,0,0,1,0-2H27.002a1,1,0,0,1,0,2Z"></path>
    <path d="M8.999 46.5a.99943.99943 0 01-1-1V33.499a1 1 0 012 0V45.5A.99942.99942 0 018.999 46.5zM24 43.49805a.99943.99943 0 01-1-1V33.499a1 1 0 012 0v8.999A.99943.99943 0 0124 43.49805z"></path>
    <path d="M7.999 49.5a1.00063 1.00063 0 01-.94824-1.31641l1-3a.99964.99964 0 011.89649.63282l-1 3A.99949.99949 0 017.999 49.5zM58.001 43.5h-10a1 1 0 010-2h10a1 1 0 010 2zM35.98633 43.5h-8.999a1 1 0 010-2h8.999a1 1 0 110 2zM36.06445 40.501H27a1 1 0 010-2h9.06445a1 1 0 010 2zM36.06445 37.501H27a1 1 0 010-2h9.06445a1 1 0 010 2z"></path>
    <path d="M30 40.501a.99943.99943 0 01-1-1v-3a1 1 0 012 0v3A.99943.99943 0 0130 40.501zM33 40.501a.99943.99943 0 01-1-1v-3a1 1 0 012 0v3A.99943.99943 0 0133 40.501zM38.99707 49.5a.99943.99943 0 01-1-1V33.499a1 1 0 012 0V48.5A.99943.99943 0 0138.99707 49.5zM44.99707 49.5a.99943.99943 0 01-1-1V33.499a1 1 0 012 0V48.5A.99943.99943 0 0144.99707 49.5z"></path>
    <path d="M44.999,43.5H36.06445a1,1,0,1,1,0-2H44.999a1,1,0,0,1,0,2Z"></path>
    <path d="M41.99805,43.499a.99942.99942,0,0,1-1-1v-9.0039a1,1,0,0,1,2,0V42.499A.99942.99942,0,0,1,41.99805,43.499Z"></path>
    <path d="M44.999 37.49512H35.98633a1 1 0 110-2H44.999a1 1 0 010 2zM44.999 40.49609H35.98633a1 1 0 010-2H44.999a1 1 0 010 2zM48.001 43.5H44.999a1 1 0 010-2h3.002a1 1 0 010 2zM48.001 46.501H44.999a1 1 0 010-2h3.002a1 1 0 010 2zM27.002 37.49805H9.12793a1 1 0 010-2H27.002a1 1 0 010 2zM27.002 40.49805H9.12793a1 1 0 010-2H27.002a1 1 0 010 2zM27.002 43.49805H9.12793a1 1 0 010-2H27.002a1 1 0 010 2z"></path>
    <path d="M14.99707 43.5a.99943.99943 0 01-1-1V33.499a1 1 0 012 0V42.5A.99943.99943 0 0114.99707 43.5zM11.999 43.5a.99943.99943 0 01-1-1V33.499a1 1 0 012 0V42.5A.99942.99942 0 0111.999 43.5zM20.999 43.49805a.99943.99943 0 01-1-1V33.499a1 1 0 012 0v8.999A.99942.99942 0 0120.999 43.49805zM27 28.499a1 1 0 01-.707-1.707l5-5A.99989.99989 0 0132.707 23.20605l-5 5A.99672.99672 0 0127 28.499z"></path>
    <path d="M37,28.499a.99672.99672,0,0,1-.707-.293l-5-5A.99989.99989,0,0,1,32.707,21.792l5,5A1,1,0,0,1,37,28.499Z"></path>
    <path d="M36 27.499H28a1 1 0 010-2h8a1 1 0 010 2zM16.999 20.49805a.99943.99943 0 01-1-1V15.5a1 1 0 012 0v3.998A.99942.99942 0 0116.999 20.49805zM22.999 20.49805a.99943.99943 0 01-1-1V15.5a1 1 0 012 0v3.998A.99942.99942 0 0122.999 20.49805zM28.999 20.49805a.99943.99943 0 01-1-1V15.5a1 1 0 012 0v3.998A.99942.99942 0 0128.999 20.49805zM34.999 20.49805a.99943.99943 0 01-1-1V15.5a1 1 0 012 0v3.998A.99942.99942 0 0134.999 20.49805zM40.999 20.49805a.99943.99943 0 01-1-1V15.5a1 1 0 012 0v3.998A.99942.99942 0 0140.999 20.49805zM46.999 20.49805a.99943.99943 0 01-1-1V15.5a1 1 0 012 0v3.998A.99942.99942 0 0146.999 20.49805z"></path>
  </g>
</svg>
